<?xml version="1.0" encoding="UTF-8"?>
<svg version="1.1" viewBox="0 0 48 48" xmlns="http://www.w3.org/2000/svg">
 <path d="m6.8 48c0.0011-0.56 0.6-2.9 0.62-2.4 0.0069 0.28 0.71 1.7 0.98 2 0.23 0.24 0.23 0.46-8.3e-4 0.46-0.12 0-0.18-0.059-0.18-0.17 0-0.094-0.05-0.22-0.11-0.29-0.11-0.12-0.46-0.72-0.64-1.1-0.18-0.4-0.31 0.063-0.31 1.1 0 0.42-0.022 0.48-0.18 0.48-0.098 0-0.18-0.03-0.18-0.067zm9.2-0.11c0-0.095 0.045-0.27 0.1-0.39 0.14-0.31-0.081-0.56-0.33-0.36-0.092 0.069-0.25 0.13-0.35 0.13-0.1 0.0017-0.28 0.077-0.4 0.17-0.29 0.22-0.79 0.3-1 0.17-0.28-0.16-1.5-0.96-1.6-1.1-0.073-0.066-0.3-0.23-0.5-0.36-0.2-0.13-0.49-0.35-0.64-0.49-0.15-0.13-0.3-0.24-0.34-0.25-0.087-0.0014-0.66-0.47-1.2-0.95-0.43-0.41-1.2-1.1-1.4-1.2-0.14-0.097-0.17-0.042-0.35 0.53-0.11 0.35-0.23 0.73-0.28 0.85-0.046 0.11-0.084 0.3-0.084 0.42 0 0.12-0.04 0.24-0.089 0.27-0.15 0.095-0.098-0.21 0.23-1.3 0.23-0.73 0.3-1.1 0.26-1.3l-0.058-0.29 0.16 0.23c0.42 0.61 4.2 3.7 4.8 4 0.073 0.029 0.19 0.12 0.25 0.21 0.064 0.089 0.17 0.16 0.24 0.16 0.071 0 0.13 0.033 0.13 0.073 0 0.4 0.86 0.47 1.5 0.13 0.12-0.064 0.3-0.12 0.38-0.12 0.24-8.3e-4 0.3-0.27 0.1-0.42-0.13-0.096-0.32-0.11-0.75-0.072-0.53 0.05-0.61 0.034-0.89-0.17-0.17-0.12-0.55-0.37-0.84-0.55-0.29-0.18-0.55-0.35-0.58-0.39-0.12-0.17-0.75-0.57-0.9-0.58-0.099-0.0072-0.39-0.23-0.64-0.5-0.25-0.27-0.68-0.67-0.95-0.9-0.27-0.23-0.76-0.67-1.1-0.98l-0.61-0.57 0.23-0.25c0.21-0.23 0.41-0.25 0.41-0.049 0 0.11 1 1.1 1.1 1 0.022-0.022-0.1-0.41-0.28-0.87-0.17-0.46-0.36-1.2-0.42-1.6-0.058-0.42-0.16-1.1-0.23-1.6-0.52-3.2-0.7-19-0.26-22 0.076-0.6 0.22-1.9 0.27-2.5 0.03-0.34 0.11-0.85 0.18-1.1 0.07-0.28 0.19-0.76 0.27-1.1 0.76-3 2-5.3 4.5-8 0.12-0.13 0.71-0.64 1.1-0.97 1.3-1 3.3-2 4.8-2.3 0.44-0.082 1.1-0.21 1.4-0.29 0.88-0.2 4.7-0.13 5.7 0.095 0.37 0.084 1.1 0.25 1.6 0.37 1.1 0.25 2.1 0.64 2.7 1 0.14 0.095 0.41 0.26 0.6 0.36 1.1 0.59 4 3.6 4 4.1 0 0.035 0.13 0.27 0.29 0.52 0.86 1.4 1.2 2.7 1.6 5.6 0.056 0.49 0.14 1.1 0.19 1.3 0.27 1.2 0.37 3.6 0.39 9 0.014 3 0.069 6.6 0.12 8 0.2 5.2 0.13 6.4-0.49 8.6-0.25 0.88-0.27 1-0.2 1.2 0.024 0.073 0.026 0.1 0.0055 0.067-0.1-0.18-0.28-0.0069-0.58 0.58-0.18 0.36-0.4 0.73-0.49 0.82-0.087 0.095-0.25 0.31-0.37 0.48-0.2 0.29-0.52 0.62-0.59 0.62-0.018 0 0.032-0.15 0.11-0.33 0.51-1.2 0.9-2.6 0.81-2.8-0.026-0.069-0.065-0.044-0.11 0.067-0.64 1.8-2.7 4.8-4.2 6-0.44 0.38-0.59 0.77-0.22 0.56 0.11-0.062 0.25-0.16 0.32-0.22 0.066-0.061 0.16-0.11 0.2-0.11 0.075 0 1.6-0.87 2.8-1.6 0.31-0.2 0.98-0.64 1.5-0.98 0.49-0.34 1-0.7 1.2-0.8 0.65-0.39 0.92-0.76 0.75-1-0.058-0.082 0.059 0.03 0.26 0.25 0.43 0.47 0.43 0.46 0.12 0.6-0.13 0.061-0.38 0.23-0.55 0.38-0.17 0.15-0.33 0.27-0.36 0.27-0.055 0-0.87 0.58-1.1 0.8-0.059 0.05-0.14 0.092-0.17 0.092s-0.19 0.1-0.35 0.22c-0.16 0.12-0.33 0.22-0.38 0.22-0.05 0-0.12 0.052-0.16 0.12-0.068 0.11-0.95 0.68-1.1 0.68-0.027 0-0.22 0.12-0.44 0.27-0.21 0.15-0.41 0.27-0.43 0.27-0.024 0-0.38 0.19-0.78 0.43-1.3 0.77-1.9 0.97-2 0.79-0.083-0.083-0.19-0.099-0.32-0.05-0.2 0.074-0.28 0.35-0.1 0.35 0.053 0 0.2 0.08 0.32 0.18 0.12 0.098 0.29 0.18 0.36 0.18 0.18 0 1.3-0.54 1.3-0.63 0-0.039 0.09-0.098 0.2-0.13 0.18-0.056 1.1-0.58 1.8-1.1 0.17-0.11 0.45-0.28 0.62-0.37 0.17-0.092 0.49-0.28 0.71-0.43 0.22-0.14 0.52-0.32 0.67-0.4 0.44-0.23 0.7-0.39 0.87-0.53 0.086-0.069 0.18-0.098 0.22-0.064 0.09 0.09-0.32 0.44-0.69 0.59-0.17 0.068-0.53 0.28-0.8 0.46-0.27 0.19-0.56 0.34-0.64 0.34-0.083 0-0.15 0.05-0.16 0.11-2e-3 0.061-0.26 0.23-0.58 0.38-0.32 0.15-0.57 0.29-0.57 0.32-9e-6 0.029-0.21 0.17-0.47 0.3-0.26 0.14-0.74 0.42-1.1 0.64-0.33 0.21-0.65 0.39-0.71 0.39-0.06 0.0011-0.21 0.08-0.33 0.18-0.27 0.21-0.71 0.24-0.71 0.047 0-0.26-0.8-0.53-0.93-0.31-0.03 0.049-0.12 0.089-0.19 0.089-0.17 0-0.084-0.52 0.11-0.68 0.23-0.18 0.015-0.66-0.3-0.66-0.053 0-0.22-0.07-0.37-0.16-0.37-0.21-0.42-0.11-0.5 0.97l-0.062 0.87h-0.54l0.062-1.1c0.034-0.61 0.083-1.2 0.11-1.2 0.05-0.13 0.57-0.16 0.57-0.032 0 0.041 0.08 0.075 0.18 0.075s0.42 0.084 0.72 0.19l0.54 0.19 0.12-0.16c0.069-0.09 0.13-0.19 0.13-0.23 0.0017-0.035 0.13-0.34 0.28-0.67 0.52-1.1 1.3-5 1.6-7.4l0.08-0.8-0.23-0.24c-0.13-0.13-0.28-0.24-0.35-0.24-0.064 0-0.12-0.032-0.12-0.07 0-0.039-0.28-0.22-0.63-0.41-0.54-0.29-0.62-0.37-0.58-0.53 0.15-0.54 0.39-2.5 0.32-2.7-0.07-0.17-0.078-0.17-0.086 0.075-0.0088 0.27-0.17 1-0.36 1.7-0.056 0.2-0.12 0.47-0.15 0.6-0.061 0.31-0.069 0.31-0.84-0.12-0.8-0.45-0.96-0.62-1.3-1.3-0.36-0.71-0.84-1.1-0.96-0.79-0.067 0.17 0.13 1.7 0.27 2.1l0.1 0.28 0.11-0.8 0.012 0.49c0.043 1.8-0.86 5.6-2.2 9.3-0.35 0.97-1.1 3.4-1.1 3.6 0 0.099-0.04 0.18-0.089 0.18-0.13 0-0.11-0.32 0.043-0.84 0.071-0.24 0.23-0.78 0.35-1.2 0.25-0.86 1.1-3.4 1.3-4 0.22-0.54 0.2-0.55-2-0.52l-2 0.022c-0.81 0.089-0.74 0.046-1.1 0.28-0.27 1.9 0.51 3.8 1.1 5.5 0.18 0.55 0.21 0.78 0.1 0.78-0.037-2.7e-4 -0.18-0.39-0.31-0.87-0.33-1.2-0.7-2.4-1.1-3.8-0.2-0.66-0.44-1.6-0.54-2-0.098-0.46-0.22-1-0.27-1.2-0.69-2.8-1.1-5.7-0.83-6.3 0.12-0.31 0.18-0.021 0.15 0.68l-0.034 0.74 0.23-0.36c0.17-0.27 0.23-0.48 0.24-0.89 0.0065-0.29 0.019-0.64 0.027-0.78 0.03-0.5-0.7-0.15-1.1 0.53-0.43 0.71-1.6 1.8-1.9 1.8-0.02 0-0.21 0.12-0.43 0.27-0.54 0.37-0.63 0.35-0.65-0.12-0.0057-0.21-0.093-0.66-0.19-1-0.17-0.58-0.21-0.8-0.34-2.2-0.032-0.33-0.095-0.63-0.14-0.65-0.12-0.071 0.01 2.1 0.2 3.4 0.15 1.1 0.11 1.4-0.18 1.4-0.33 0-1.4 0.84-1.4 1.1 2.7e-4 0.75 0.42 3.7 0.62 4.5 0.042 0.15 0.15 0.55 0.25 0.89 0.69 2.5 1.1 3.1 1.6 2.6 0.058-0.048 0.36-0.12 0.66-0.15l0.55-0.063-0.0048 0.43c-0.0028 0.24-0.038 0.75-0.08 1.1-0.045 0.43-0.042 0.77 0.0079 0.87 0.072 0.14 0.038 0.16-0.27 0.16-0.42 0-0.53-0.28-0.32-0.79 0.17-0.4 0.26-1.2 0.15-1.3-0.12-0.073-1 0.23-1.1 0.35-0.048 0.15 0.23 0.39 0.37 0.33 0.098-0.037 0.12 0.033 0.11 0.31-0.01 0.26-0.058 0.37-0.17 0.4-0.093 0.024-0.18 0.17-0.21 0.36-0.064 0.34-0.22 0.44-0.22 0.15zm-1.8-2.2c-1.3-1.4-1.7-1.9-2.4-3-0.73-1.1-1.4-2.5-1.5-3-0.29-1.4-0.48-1.7-0.3-0.41 0.048 0.34 0.11 0.78 0.13 0.97 0.24 2 0.96 3.8 1.5 3.8 0.053 0 0.097 0.04 0.097 0.089s0.044 0.089 0.097 0.089c0.11 0 1.2 0.79 1.2 0.9 0.016 0.041 0.061 0.075 0.099 0.075 0.038 0 0.34 0.18 0.67 0.4 0.67 0.45 0.84 0.46 0.42 0.018zm13-5.1c0.24-0.77 0.98-4.5 0.98-4.9-0.0011-0.18-0.077-0.5-0.17-0.7-0.25-0.56-0.38-1.8-0.31-2.9 0.057-0.92 0.049-1-0.093-1-0.1 0-0.14 0.046-0.1 0.14 0.03 0.079 0.015 0.11-0.035 0.084-0.075-0.046-0.58 0.18-0.71 0.31-0.72 0.75-3.8 1.1-4.9 0.53-0.077-0.04-0.34-0.16-0.58-0.26s-0.51-0.23-0.6-0.27c-0.085-0.045-0.17-0.083-0.19-0.083-0.018 0-0.036 0.67-0.04 1.5-0.0069 1.7-0.049 1.9-0.34 2.2-0.12 0.098-0.21 0.26-0.21 0.4 2.2e-5 0.28 0.34 2.4 0.4 2.5 0.049 0.08 0.84-0.14 0.97-0.27 0.1-0.1 1-0.12 1-0.02 0.051 0.11 0.76 0.64 0.86 0.64 0.12 0 0.13 0.24 0.011 0.31-0.048 0.03-0.31-0.11-0.58-0.32-0.6-0.46-1.7-0.49-1.7-0.058-1.8e-4 0.037-0.1 0.067-0.23 0.067h-0.23l0.055 0.42c0.071 0.55 0.41 2 0.48 2.1 0.057 0.064 1.9 0.19 4.6 0.3 0.85 0.038 1.3 0.092 1.3 0.16 5e-3 0.18 0.17-0.19 0.35-0.76zm-2.2-8.6c0.61-0.15 1.9-0.74 2.7-1.2 0.28-0.17 0.81-0.46 1.2-0.65 0.37-0.19 0.69-0.37 0.71-0.39 0.024-0.024 0.4-0.28 0.84-0.57 2.3-1.5 3.2-3.9 3.2-8-2e-3 -3.9-0.11-4.5-1.2-6.5-0.19-0.37-0.49-0.95-0.67-1.3-0.18-0.34-0.45-0.81-0.61-1s-0.29-0.46-0.29-0.51c0-0.29-0.16-0.04-0.21 0.32-0.028 0.23-0.095 0.74-0.15 1.1l-0.098 0.7 0.25 0.19c1.7 1.3 2.6 4.4 1.7 5.9-0.18 0.3-0.42 0.27-0.35-0.044 0.27-1.2 0.24-2.5-0.073-3.4-0.25-0.72-1.4-2-1.6-1.9-0.06 0.022-0.15-0.029-0.19-0.11-0.24-0.45-2.1-0.62-2.8-0.25-0.49 0.25-0.68-7.2e-4 -0.29-0.39 0.21-0.21 0.22-0.26 0.048-0.64-0.071-0.16-0.31-0.78-0.53-1.4-0.22-0.6-0.46-1.2-0.54-1.3-0.074-0.11-0.13-0.27-0.13-0.37 0-0.22-1.7-3.7-2-4.1-0.11-0.42-0.61-0.59-0.75-0.69-0.18 0.22-0.89 1.6-0.89 1.7 0 0.02-0.097 0.25-0.21 0.5-0.29 0.64-0.66 1.6-0.77 2.1-0.26 1-0.46 2.1-0.58 2.9-0.15 1.1-0.27 1.4-0.19 0.44 0.13-1.7 0.46-3.2 1-4.8l0.061-0.18-0.13 0.18c-0.3 0.63-0.85 2.1-0.95 2.4-0.11 0-1.1 3.1-0.97 3.1 0.019 0.011 0.15 0.08 0.29 0.15 0.25 0.13 0.49 0.57 0.37 0.69-0.029 0.029-0.12-0.0094-0.21-0.086-0.96-0.85-3.8-0.3-4 0.76-0.023 0.24-0.062 0.28-0.23 0.27-0.14-0.015-0.26 0.071-0.42 0.31-0.48 0.73-0.53 1-0.53 2.8 5.6e-4 0.92-0.0059 1.7-0.014 1.7-0.083 0-0.52-0.28-0.58-0.37-0.25-0.39 0.039-3.2 0.4-3.9 0.068-0.13 0.19-0.36 0.27-0.51 0.08-0.15 0.25-0.39 0.39-0.52l0.24-0.24 0.028-1.6c0.018-1-0.0037-1.6-0.062-1.6-0.05 0-0.46 0.74-0.91 1.7l-0.82 1.7-0.043 4.9c-0.041 4.7-0.035 4.9 0.14 5.6 0.23 0.85 0.48 1.5 0.62 1.7 0.061 0.065 0.11 0.15 0.11 0.18 0 0.16 1.1 1.1 1.7 1.6 0.99 0.65 1.8 1.1 2 1.2 0.13 0.049 0.39 0.18 0.57 0.3 0.44 0.27 2.2 1.1 3.2 1.5 1 0.4 1.9 0.47 2.9 0.23zm-1.5-2.1c-1.1-0.25-1.6-0.92-1.7-2.3l-0.049-0.76h4.3l-0.0031 0.31c-0.02 2-1 3.1-2.5 2.8zm1.1-0.21c0-0.049 0.097-0.089 0.22-0.089 0.13 0 0.29-0.095 0.4-0.24 0.1-0.13 0.22-0.29 0.26-0.34 0.32-0.39 0.24-1.2-0.12-1.3-0.049-0.011-0.25-0.079-0.44-0.15-0.73-0.27-2.5-0.11-2.5 0.22 0 0.051-0.035 0.071-0.079 0.044-0.18-0.11-0.29 0.45-0.16 0.77 0.16 0.38 0.7 0.96 0.9 0.96 0.077 0 0.14 0.04 0.14 0.089 0 0.052 0.3 0.089 0.71 0.089s0.71-0.037 0.71-0.089zm-1.4-5.7c0-0.53 0.34-0.54 0.38-0.0036 0.015 0.21-0.021 0.26-0.18 0.29-0.17 0.025-0.2-0.011-0.2-0.28zm-5.4-1.4c-0.38-0.13-0.35-0.16 0.22-0.21 0.34-0.033 0.8-0.092 1-0.13 0.64-0.11 0.36 0.1-0.34 0.26-0.65 0.15-0.68 0.15-0.89 0.082zm11-0.17c-0.2-0.075-0.45-0.16-0.56-0.18-0.25-0.059-0.26-0.2-0.02-0.2 0.16 0 0.13-0.057-0.18-0.45-0.93-1.2-1.1-4.8-0.31-6.2 1.1-1.8 3.4-0.97 4 1.5 0.53 2.2-0.61 5.2-1.9 5.2-0.13 7.2e-4 -0.3 0.043-0.37 0.094-0.097 0.068 0.031 0.084 0.47 0.061 0.38-0.02 0.59 9.7e-4 0.57 0.059-0.079 0.24-1.1 0.29-1.6 0.085zm0.24-1.7c0.53-0.62 0.12-1.4-0.68-1.3-0.57 0.06-0.72 0.84-0.25 1.4 0.19 0.21 0.74 0.21 0.93-0.012zm-12 0.99c-1.8-1.9-1.4-6.3 0.64-7.1 1.6-0.65 2.6 0.72 2.6 3.6 0.0028 2.9-0.51 3.8-2.1 3.9l-0.7 0.041zm0.68-0.74c0.69-0.24 0.7-1.3 0.0059-1.6-0.58-0.22-1 0.15-1 0.84 0 0.74 0.34 0.99 1 0.75zm-0.75-7.1c0.83-0.25 1.5-0.35 1.8-0.27 0.34 0.097 0.44 0.027 0.31-0.21-0.062-0.11-0.12-0.73-0.14-1.5 0.21-1.6-0.56-1.3-1.2-1.2-0.35 0.53-1.5 3.4-1.3 3.4 0.022 0 0.29-0.076 0.6-0.17zm12-0.29c0.88 0.11 0.82 0.16 0.61-0.48-0.83-1.7-1.3-3.1-2.2-4.6-0.061-0.038-0.071 0.073-0.03 0.33 0.034 0.21 0.06 1.4 0.057 2.6-0.0056 2.4-0.032 2.3 0.45 2.2 0.24-0.061 0.59-0.06 1.1 0.0037zm-6.1 34c0-0.12 0.02-0.17 0.045-0.11 0.025 0.061 0.025 0.16 0 0.22-0.025 0.061-0.045 0.011-0.045-0.11zm6.8-0.44c0-0.34 0.017-0.62 0.037-0.62 0.17 0 0.32 0.14 0.31 0.3-0.0081 0.15-0.019 0.16-0.051 0.035-0.022-0.086-0.08-0.16-0.13-0.16-0.049 0-0.069 0.07-0.044 0.16 0.15 0.53 0.16 0.91 0.02 0.91-0.12 0-0.14-0.11-0.14-0.62zm9.9 0.51c0-0.061 0.1-0.39 0.23-0.73 0.13-0.34 0.29-0.78 0.36-0.98 0.23-0.63-0.16-2.5-0.52-2.5-0.042 0-0.076-0.06-0.076-0.13 0-0.073-0.04-0.13-0.089-0.13s-0.089 0.059-0.089 0.13-0.1 0.16-0.22 0.19c-0.12 0.031-0.27 0.12-0.33 0.2-0.097 0.13-0.51 0.26-0.51 0.16 0-0.021 0.17-0.15 0.38-0.29 0.21-0.14 0.43-0.31 0.5-0.37 0.14-0.13 0.47-0.32 0.49-0.27 0.0084 0.016 0.081 0.21 0.16 0.43s0.43 1.1 0.77 2c0.62 1.6 0.83 2.4 0.66 2.4-0.047 0-0.11-0.09-0.14-0.2-0.027-0.11-0.11-0.46-0.19-0.78-0.079-0.32-0.17-0.68-0.2-0.8-0.11-0.46-0.27-0.58-0.34-0.25-0.089 0.42-0.4 1.4-0.5 1.6-0.045 0.085-0.081 0.21-0.081 0.29 0 0.074-0.06 0.13-0.13 0.13-0.073 0-0.13-0.05-0.13-0.11zm-9.4-0.78c0-0.12 0.02-0.17 0.045-0.11 0.025 0.061 0.025 0.16 0 0.22-0.025 0.061-0.045 0.011-0.045-0.11z" fill="#000000" stroke-width=".089"/>
</svg>
